<svg id="a25b726d-33b9-4270-a13b-48ebece93223" data-name="Layer 1" xmlns="http://www.w3.org/2000/svg" viewBox="0 0 15 15.35761"><title>poscye</title><path d="M6.30768,5.05528a.55842.55842,0,0,1,.10225-.26585.51128.51128,0,0,1,.23517-.16359,1.38626,1.38626,0,0,1,.29652-.06135,1.43524,1.43524,0,0,1,.29651,0,1.9927,1.9927,0,0,1,.25562.02045,1.57441,1.57441,0,0,0,.19428.02045c.11247.02045.17382.03068.17382.03068s-.05113-.03068-.15337-.08181a2.49416,2.49416,0,0,0-.44989-.15337,2.5726,2.5726,0,0,0-.317-.05113,1.23212,1.23212,0,0,0-.37832.03068.74694.74694,0,0,0-.37832.21472,1.30145,1.30145,0,0,0-.13292.19427.84836.84836,0,0,0-.06135.21472.38337.38337,0,0,0-.01023.10225v.29652a2.13476,2.13476,0,0,0,.0409.3681,2.7228,2.7228,0,0,0,.0818.33741,2.54143,2.54143,0,0,0,.11248.29653,1.28421,1.28421,0,0,0,.13292.23516,1.13434,1.13434,0,0,0,.1227.1636l.092.092.03067.03068a.16125.16125,0,0,0-.01022-.0409.85243.85243,0,0,1-.04091-.1227c-.03067-.10225-.07157-.25561-.11247-.42944a3.4422,3.4422,0,0,1-.0818-.60326c-.01022-.11247-.02045-.225-.02045-.34765V5.12685A.08632.08632,0,0,1,6.30768,5.05528Z" transform="translate(-0.5 -0.3212)" style="fill:#c6e2ff"/><path d="M7.11544,5.48471V5.42337A.21375.21375,0,0,1,7.187,5.29045a.46866.46866,0,0,1,.14315-.07157A1.00686,1.00686,0,0,1,7.504,5.19843a2.31736,2.31736,0,0,1,.2863.01023.1992.1992,0,0,1,.08179.01023h.03067L7.8823,5.19844a.58757.58757,0,0,1-.07158-.0409,1.24958,1.24958,0,0,0-.28629-.10225,1.27682,1.27682,0,0,0-.21472-.02044.42075.42075,0,0,0-.25562.0818.407.407,0,0,0-.16359.2454c0,.02044-.01023.05112-.01023.07157V5.495h0V5.6279l.01023.07157a.10965.10965,0,0,0,.02044.06135.5764.5764,0,0,0,.04091.1227.73549.73549,0,0,0,.12269.21472.56209.56209,0,0,0,.07158.092c.03067.03067.05112.06134.07157.0818a.47208.47208,0,0,0,.07157.07157c.02045.02045.05113.0409.07158.06135.05112.04089.092.07157.13292.10225a.41649.41649,0,0,0,.11247.06134c.03067.02045.06135.03068.07158.0409a.07905.07905,0,0,0,.03067.01023.61724.61724,0,0,0-.07158-.08181.88436.88436,0,0,1-.07157-.10225l-.092-.1227c-.02045-.02044-.03067-.05112-.05112-.07157-.02045-.03068-.03068-.05112-.05113-.0818s-.03067-.05113-.05112-.0818-.03068-.06135-.05113-.092a.36341.36341,0,0,1-.0409-.092c-.01023-.02044-.01023-.03067-.02045-.05112s-.01022-.03068-.02045-.05113a.29985.29985,0,0,1-.03067-.10225.09218.09218,0,0,1-.01022-.05112l-.01023-.0409V5.48472H7.11544Z" transform="translate(-0.5 -0.3212)" style="fill:#c6e2ff"/><path d="M8.45489,9.08384a.444.444,0,0,1-.06135.07157l-.06135.08181c-.02045.03067-.0409.05112-.06135.0818-.01022.01023-.02045.03068-.03067.04089l-.02045.0409-.05113.08179-.0409.08181c-.03067.06134-.05112.12269-.08179.17382-.03068.06134-.04091.1227-.07158.184l-.03067.092-.02045.092-.03067.092-.02045.092-.01023.12269-.01023.05113v.05113l-.02044.19427a1.1736,1.1736,0,0,1-.01023.19427v.2045l.02045.38854v.184a1.11186,1.11186,0,0,1-.01022.184l-.01023.092-.01022.0818-.03067.184a1.18946,1.18946,0,0,1-.0409.18405,1.18912,1.18912,0,0,0-.04091.184l-.02044.092-.03068.092c-.02044.06134-.0409.1227-.06135.17382-.0409.1227-.08179.23517-.13292.35787a5.99221,5.99221,0,0,1-.32719.68506c-.03067.05113-.05113.10225-.0818.15338a2.42686,2.42686,0,0,0,.02045-.71573,5.10312,5.10312,0,0,1-.30675.71573,3.39217,3.39217,0,0,1-.69528.74641.21355.21355,0,0,1-.06135.04089l-.06135.0409a.58.58,0,0,1-.13292.0818l-.1227.0818c-.0409.03068-.092.05113-.13292.08181s-.092.05112-.13292.0818l-.13293.07157c.05113-.02045.10225-.04089.14315-.06134.05113-.02045.092-.0409.14315-.06135s.092-.04089.14314-.06134l.14315-.07157c.05112-.02045.092-.05113.13292-.07158l.07158-.04089a.44354.44354,0,0,1,.07157-.0409.9339.9339,0,0,1,.13292-.0818l.1227-.092.03067-.02045h0l.01023-.01023.02044-.01023c.02045-.02045.0409-.03068.06135-.05112l.06135-.06135a.27123.27123,0,0,0,.05113-.06134c.02044-.02045.03067-.0409.05112-.06135s.03067-.04089.05113-.06134l.0409-.06134v-.01023l-.06135.317-.092.51124.317-.41922c.08179-.11247.15337-.21472.22494-.32719s.13292-.22495.2045-.33742c.06135-.11247.12269-.23517.184-.34765.03068-.06134.05113-.12269.0818-.17382.02045-.06134.05113-.1227.07157-.184.05113-.1227.092-.2454.13293-.3681l.06135-.184.03067-.092.02045-.092a1.31676,1.31676,0,0,0,.0409-.19427c.01022-.06135.02044-.13292.03067-.19428a1.25309,1.25309,0,0,0,.02045-.19427l.01022-.10225v-.29652a1.37109,1.37109,0,0,0-.01022-.2045L8.005,11.1186c0-.03068-.01022-.06135-.01022-.092v-.27607l.01022-.184v-.092l.01023-.092.01022-.092.02045-.092a1.1896,1.1896,0,0,1,.0409-.184c.02045-.06134.03067-.1227.05113-.184s.0409-.1227.06135-.17382l.03067-.092.0409-.0818.02045-.04089a.07759.07759,0,0,0,.02045-.0409.60435.60435,0,0,0,.0409-.0818,1.69249,1.69249,0,0,1,.22494-.30674C8.54691,8.99181,8.506,9.04294,8.45489,9.08384Z" transform="translate(-0.5 -0.3212)" style="fill:#c6e2ff"/><path d="M14.87606,10.82205l-.04091.0818a.829.829,0,0,0-.06135.13292c-.02044.05112-.05112.10225-.07157.16359-.01022.03068-.03067.06134-.0409.092a.30635.30635,0,0,0-.0409.10225c-.03067.07157-.07157.13292-.10225.2045a.47811.47811,0,0,0-.05113.10225c-.02044.03068-.0409.07158-.06134.10225s-.04091.07158-.06135.10225-.05113.06135-.07158.092l-.05111.0409-.02045.02045a.01.01,0,0,1-.01022.01023l-.01023.01023c-.02045.01022-.03067.03067-.05112.04089v.02045h0l-.03067.02045c-.02045.01023-.03067.02045-.05113.03068s-.03067.02044-.05112.03067a.94959.94959,0,0,1-.10225.05113c-.03067.02045-.07157.02045-.10225.04089-.03067.01023-.07157.02045-.10225.03068a.363.363,0,0,1-.10225.02045c-.03067.01023-.06135.01023-.10225.02045-.06135.01023-.1227.01023-.17383.02044-.05112,0-.10225.01023-.14314.01023h-.1227a.12648.12648,0,0,0,.03068.02045c.02045.01023.05112.02045.092.0409a1.29947,1.29947,0,0,0,.14314.04089c.06135.01022.1227.03068.19428.0409a1.73208,1.73208,0,0,0,.23516.01023c.0409,0,.0818-.01023.13293-.01023.02044,0,.0409-.01023.06135-.01023a.14536.14536,0,0,0,.06134-.02045.71006.71006,0,0,0,.13293-.05112c.02044-.01023.05112-.02045.07157-.03068s.0409-.03068.06135-.04089l.03067-.02045h0l.01023-.01023h.01022l.01022-.01023c.02045-.01023.03068-.03068.05113-.0409s.03067-.04089.05112-.05112l.05113-.06135a.85326.85326,0,0,0,.0818-.12269.7618.7618,0,0,1,.07157-.1227l.06135-.1227c.02045-.0409.03067-.0818.05112-.1227.03068-.0818.05113-.16359.07158-.23517a1.58939,1.58939,0,0,0,.0409-.21472,1.43735,1.43735,0,0,0,.02045-.184c0-.05112.01022-.10225.01022-.14315v-.13291S14.87606,10.8016,14.87606,10.82205Z" transform="translate(-0.5 -0.3212)" style="fill:#c6e2ff"/><path d="M14.8965,9.4826c-.13292.21472-.64416-.03067-.64416-.03067a.86046.86046,0,0,0,.28629.47033c.1636.10225.48057.184.47034.26585s-.14314.13291-.14314.13291.05112.19429.184.18407.46012-.57259.4499-.98158c0-.21472-.66462-.89978-1.2372-1.37012a6.0705,6.0705,0,0,0-.89978-.61349S15.02943,9.26788,14.8965,9.4826Z" transform="translate(-0.5 -0.3212)" style="fill:#c6e2ff"/><path d="M1.23619,3.55223a13.025,13.025,0,0,1,1.14518-.68507c.19427-.10225.38854-.21472.593-.30674s.39877-.19427.61349-.27607a9.11572,9.11572,0,0,1,1.25765-.42944c.21472-.06134.42944-.10225.64416-.14315.05113-.01022.11248-.02044.1636-.03067a.79429.79429,0,0,1,.16359-.02045l.0818-.01023h.0818c.05113,0,.11248-.01023.1636-.01023A4.66146,4.66146,0,0,1,6.79847,1.63a3.47243,3.47243,0,0,1,.64417.0818,3.19558,3.19558,0,0,1,1.17585.47034,2.3025,2.3025,0,0,1,.47034.41922c.07157.0818.13292.16359.19427.2454a1.51639,1.51639,0,0,1,.0818.13291l.03067.06135.02045.03067c0,.01023.01022.02045.01022.03068l.29652.78731L9.7432,3.0512v-.317c0-.10225-.01022-.21472-.02044-.317a1.02007,1.02007,0,0,0-.02045-.1636c-.01023-.05112-.02045-.11247-.03067-.16359l-.01023-.0409V2.02872L9.65119,2.0185l-.02045-.08181c-.01022-.05112-.03067-.10225-.0409-.15337s-.03067-.10225-.0409-.15338l-.05113-.15337c-.02045-.05113-.03067-.10225-.05112-.15338l-.06135-.15337a.49951.49951,0,0,0-.03067-.07158c.07157.06135.14314.1227.20449.184A2.60417,2.60417,0,0,1,9.825,1.589a1.56075,1.56075,0,0,1,.11247.16359c.03067.06135.07157.11247.10225.17382a.81317.81317,0,0,1,.0409.092l.02045.05112v.02046l.01022.02045a1.08965,1.08965,0,0,1,.07158.19427l.03067.10225.03067.10225c.02045.07157.03067.13292.05113.2045.03067.13292.06135.27607.08179.409l.0409.2045c.01023.07157.02045.14315.03068.2045l.05112.34765.19427-.29652.0818-.13292.0818-.13292a1.51663,1.51663,0,0,0,.0818-.13292l.08179-.13291.0818-.13292c.02045-.0409.05112-.092.07157-.13292l.0409-.07157.03068-.07158.03067-.07157.02045-.04089.02044-.03068c.04091-.092.0818-.184.1227-.28629.0409-.092.07158-.19428.10225-.2863.03068-.10225.06135-.19427.0818-.29652,0-.01023.01022-.03068.01022-.04089a.4986.4986,0,0,1,.04091.11246l.06134.18405c.02045.06134.03068.1227.05113.184.01022.06134.03067.1227.0409.19427a1.65368,1.65368,0,0,1,.03068.20449.28289.28289,0,0,0,.01023.092v.28631a1.2536,1.2536,0,0,1-.02045.19427,1.316,1.316,0,0,1-.0409.19427c-.02045.06134-.03067.1227-.05113.184a.61662.61662,0,0,1-.06135.19427,2.87089,2.87089,0,0,1-.17382.35787,2.25223,2.25223,0,0,1-.21472.32719,2.39328,2.39328,0,0,0,.2454-.317,2.31962,2.31962,0,0,0,.19427-.34765,2.45967,2.45967,0,0,0,.22494-.76686V2.47861c0-.06134-.01022-.13292-.01022-.2045a1.41234,1.41234,0,0,0-.03067-.2045,1.31451,1.31451,0,0,0-.04091-.19427A.30266.30266,0,0,1,11.87,1.77309c-.01023-.03068-.02045-.07157-.03068-.10225a1.49,1.49,0,0,0-.07157-.19427c-.02045-.06135-.05112-.1227-.0818-.19427l-.11247-.21472-.05113.24539c-.01022.0409-.02044.092-.03067.14315s-.03067.092-.0409.14315c-.03067.092-.06135.184-.092.28629-.03067.092-.07157.184-.11247.27607s-.0818.184-.1227.26585l-.02045.03067-.02045.03068-.0409.06134-.01023.07161-.0409.06134c-.02045.0409-.05112.0818-.07157.1227l-.0818.1227-.0818.1227a.568.568,0,0,1-.06135.0818c0-.03068-.01022-.06135-.01022-.0818-.02045-.14315-.05113-.2863-.0818-.42944a1.63317,1.63317,0,0,0-.05112-.21472l-.03067-.10225-.03068-.10225c-.02045-.07158-.05112-.14315-.07157-.21472l-.01022-.03068-.01023-.02045V1.92648l-.02045-.05112a.47736.47736,0,0,0-.05112-.10225,1.20375,1.20375,0,0,0-.11248-.19427c-.0409-.06135-.08179-.13292-.12269-.18405a2.85316,2.85316,0,0,0-.2863-.32718A3.30971,3.30971,0,0,0,9.45692.77108,1.30191,1.30191,0,0,0,9.26265.63817.899.899,0,0,0,9.16039.57682L9.10927.54614A.34091.34091,0,0,0,9.04792.51547L8.61848.3212l.22495.41922c.02044.04089.0409.0818.06134.13291.02045.0409.04091.092.06135.13292l.1227.27607A.59155.59155,0,0,1,9.14,1.42547c.02044.05113.03067.092.05112.14315l.0409.14314c.01023.05113.03068.092.0409.14315s.03068.092.04091.14315l.02044.07157v.0409l.01023.04089a.69078.69078,0,0,1,.02045.14315.18555.18555,0,0,1,.03067.13294v.01022a.271.271,0,0,1-.05113-.06134,2.86774,2.86774,0,0,0-.53169-.46012A3.626,3.626,0,0,0,8.189,1.58909a3.90864,3.90864,0,0,0-.67483-.19428,5.34521,5.34521,0,0,0-.69529-.07157,5.26483,5.26483,0,0,0-.69528.02045,1.00773,1.00773,0,0,0-.17382.02045H5.90891l-.0409.01023-.08179.01022a1.007,1.007,0,0,1-.17383.02045c-.06135.01023-.11247.02045-.17382.03068-.22494.0409-.44989.10225-.66461.16359a9.12248,9.12248,0,0,0-1.2781.48057,13.37156,13.37156,0,0,0-1.1963.63394,6.63384,6.63384,0,0,0-.56236.36809c-.18405.13293-.36809.25562-.55214.38855-.22494.17382-.43967.35786-.65439.54191C.52045,4.03282.51022,4.04305.5,4.0635c.06135-.05113.1227-.092.18405-.14315Z" transform="translate(-0.5 -0.3212)" style="fill:#c6e2ff"/><path d="M10.36692,11.57868,10.3567,11.456l-.02045-.1227a2.04641,2.04641,0,0,0-.0409-.2454c-.02045-.0818-.03067-.16359-.05112-.2454s-.0409-.16359-.06135-.23516l-.03067-.1227-.04091-.11247c-.02044-.0818-.06135-.15338-.08179-.23517a2.3402,2.3402,0,0,0-.10225-.23517L9.71254,9.4826a.94552.94552,0,0,1-.05113-.10225L9.61029,9.2781l-.092-.21472-.0818-.22494c-.01023-.02045-.01023-.0409-.02045-.05113L9.39557,8.726,9.3649,8.6135,9.33423,8.501l-.02045-.11247a1.88842,1.88842,0,0,1-.0409-.23517C9.26265,8.07159,9.25243,8,9.24221,7.91822c0-.0818-.01023-.15337-.01023-.23517V7.56036l.02044-.12271V7.3763A.12961.12961,0,0,1,9.26265,7.315a.51346.51346,0,0,1,.02044-.1227,1.80094,1.80094,0,0,1,.1227-.46011,2.04443,2.04443,0,0,0-.10225.21471c-.01022.0409-.03067.07158-.0409.11247l-.0409.11247-.03067.1227c0,.02045-.01023.0409-.01023.06135l-.01022.06134-.02045.1227-.02045.11247a1.971,1.971,0,0,0-.01022.24539,1.9711,1.9711,0,0,0,.01022.2454.49758.49758,0,0,0,.01023.1227l.02044.1227.02045.1227.02045.12269.02045.1227L9.232,8.818a.14536.14536,0,0,0,.02045.06134l.06135.23517a2.14248,2.14248,0,0,0,.0818.23517l.0409.11247a.54791.54791,0,0,0,.05112.11247l.19428.43966a1.84484,1.84484,0,0,1,.08179.21472c.02045.07158.05113.14315.07158.22495l.03067.11247.03067.11247c.02045.07157.03067.15338.05113.22495a1.609,1.609,0,0,1,.0409.23517c.01022.0818.02044.15337.03067.23516l.01022.11247.01023.11247c.01022.0818.01022.15338.02044.23517.01023.15338.01023.317.01023.47034a7.26541,7.26541,0,0,1-.06135.94068L9.97837,13.46a3.04369,3.04369,0,0,0-.317-.84866,5.71178,5.71178,0,0,1-.03067.96112,3.86766,3.86766,0,0,1-.47034,1.17585c-.02045.03068-.03068.05113-.05113.08181l-.05113.0818c-.0409.05112-.07157.10225-.11247.15337l-.11247.15338a1.46385,1.46385,0,0,0-.11248.15337l-.1227.15338-.12269.15337a1.69836,1.69836,0,0,0,.14314-.13291c.05113-.0409.092-.092.14315-.13292a.883.883,0,0,0,.13292-.14315l.13292-.14314.1227-.15338.06135-.07157a.56745.56745,0,0,0,.06135-.0818l.1227-.15338L9.4978,14.503l.03067-.0409h0v-.01023h0l.01022-.01023.01023-.02045a.36319.36319,0,0,0,.0409-.092l.0409-.092.03067-.092.03067-.092.03068-.092.02044-.092V13.8588l.0818.39876.1227.63394.17382-.63394c.0409-.1636.0818-.317.11248-.48057s.06135-.317.0818-.48056.0409-.32719.05112-.49079a1.97118,1.97118,0,0,0,.01022-.2454v-.2454c0-.16359,0-.32718-.01022-.49079A.65946.65946,0,0,0,10.36692,11.57868Z" transform="translate(-0.5 -0.3212)" style="fill:#c6e2ff"/><path d="M12.52435,5.47449a1.82892,1.82892,0,0,1-.13292-.14315c-.05112-.0409-.092-.092-.14314-.13292a1.77731,1.77731,0,0,1-.14315-.1227L11.95177,4.953a1.4619,1.4619,0,0,0-.15337-.11247c-.05113-.0409-.10225-.07158-.1636-.11247a1.43105,1.43105,0,0,0-.16359-.10225c.092.0818.19427.17382.27607.25561l.13292.13292a1.62987,1.62987,0,0,0,.13292.13292,1.77912,1.77912,0,0,1,.1227.14314c.0409.05113.0818.092.1227.14315a1.37284,1.37284,0,0,1,.11247.14315c.0409.05112.07158.10225.11248.15337a1.33289,1.33289,0,0,1,.10225.15338l.092.15337.092.1636a.81553.81553,0,0,1,.0818.16359c.03067.05113.05112.11247.0818.1636s.05112.11246.08179.16359c.01023.02045.01023.03068.02045.05112-.02045,0-.03067-.01022-.0409-.01022l-.1227-.03068-.1227-.03068-.1227-.02045c-.0409-.01023-.08179-.01023-.12269-.02044l-.11248-.01021h-.07157l-.06135-.01023-.12269-.01023h-.3681c-.0409,0-.0818.01023-.13292.01023a.704.704,0,0,0-.13292.02045.19975.19975,0,0,0-.07158.01022.26031.26031,0,0,0-.07157.02045l-.48056.14315.48056.0818a.36737.36737,0,0,0,.11247.02045c.04091.01023.0818.02045.11248.03068a1.98593,1.98593,0,0,1,.22494.0818,1461.13941,1461.13941,0,0,1,.2045.10225,1.30094,1.30094,0,0,1,.19427.13292c.01023.01022.03068.02044.04091.04089l.01022.01023h0l.02045.02045.0409.0409.0409.04089c.01022.01023.02045.03068.0409.05113.01022.02044.02045.03067.03067.05112a.89964.89964,0,0,1,.06135.10225.47788.47788,0,0,1,.05113.10225.4988.4988,0,0,1,.0409.11247.88466.88466,0,0,1,.06135.23517v-.1227a.51348.51348,0,0,0-.02045-.1227l-.03067-.1227a.57665.57665,0,0,0-.0409-.12269,1.19755,1.19755,0,0,0-.05113-.11247c.06133-.02045.05111-.03068.04088-.05113l-.03067-.06134-.0409-.05113a.17927.17927,0,0,0-.0409-.05112l-.02045-.02045h0l-.01022-.01023-.01023-.01023c-.01022-.02045-.03067-.03068-.0409-.05112a1.66942,1.66942,0,0,0-.20449-.17383c-.06135-.04089-.13293-.0818-.19428-.1227h.05113a.38316.38316,0,0,1,.11247.01023l.11248.01023.11247.02045.11248.02045c.0409.01023.08179.01023.11247.02045l.11247.02044a.43475.43475,0,0,0,.11248.02045c.0409.01023.07157.02045.11247.03068s.07158.02045.11248.03068a.49858.49858,0,0,1,.11247.04089.30635.30635,0,0,1,.10225.0409l.3272.14315-.13293-.317a.90688.90688,0,0,0-.08179-.17383c-.03068-.06134-.05113-.11247-.0818-.17382s-.06135-.11247-.092-.17382-.06135-.11247-.092-.1636a1.43245,1.43245,0,0,0-.10225-.16359L12.872,5.94481c-.04091-.06134-.07158-.10225-.11248-.16359l-.1227-.15338A.39714.39714,0,0,0,12.52435,5.47449Z" transform="translate(-0.5 -0.3212)" style="fill:#c6e2ff"/><path d="M6.02139,2.32526a3.90937,3.90937,0,0,1,.68506-.0409h.0818c.03067,0,.05112.01023.08179.01023a.225.225,0,0,1,.0818.01023c.03067,0,.05113.01023.0818.01023s.06135.01022.08179.01022a.2407.2407,0,0,1,.0818.02045c.05113.01023.10225.03068.15337.0409a2.76318,2.76318,0,0,1,1.03271.55214,2.50871,2.50871,0,0,1,.32719.33741,2.92339,2.92339,0,0,1,.21472.29653c.05113.092.092.15337.11248.2045s.03067.07157.03067.07157a.75021.75021,0,0,1-.02045-.0818c-.02045-.05113-.0409-.13292-.0818-.225a2.264,2.264,0,0,0-.184-.32719,2.49053,2.49053,0,0,0-.30675-.37831,2.03761,2.03761,0,0,0-.21472-.19428A2.24638,2.24638,0,0,0,8.005,2.46842a2.71534,2.71534,0,0,0-.60326-.27607c-.05113-.02045-.11248-.03068-.17383-.05113-.03067-.01023-.06135-.01023-.08179-.02045-.03068-.01022-.06135-.01022-.0818-.02044a.19272.19272,0,0,1-.0818-.02045c-.03067,0-.06135-.01023-.092-.01023s-.06135-.01023-.092-.01023a.28292.28292,0,0,1-.092-.01023,3.55923,3.55923,0,0,0-.73619.0409,5.06747,5.06747,0,0,0-.7055.14314c-.23517.06135-.46012.13292-.66462.2045-.21472.07158-.409.15338-.60326.23517s-.36809.1636-.52146.23517c-.1636.0818-.30675.15338-.43967.225s-.23517.13292-.3272.184c-.184.11247-.28629.17382-.28629.17382A.46621.46621,0,0,0,2.50406,3.45c.05112-.02045.1227-.05113.22494-.092.092-.0409.21472-.092.34764-.14315s.2863-.11247.4499-.184c.16359-.06135.34764-.13292.54191-.2045s.39877-.13292.60326-.2045a6.10778,6.10778,0,0,1,.65439-.18405C5.56127,2.39683,5.78622,2.35593,6.02139,2.32526Z" transform="translate(-0.5 -0.3212)" style="fill:#c6e2ff"/><path d="M12.371,11.85476a1.65353,1.65353,0,0,0-.10225-.18405l-.05113-.092a.41438.41438,0,0,1-.05112-.092l-.03067-.04089c-.01023-.02045-.03068-.03068-.0409-.05113l-.0818-.0818a1.35323,1.35323,0,0,0-.2045-.1227.81187.81187,0,0,0-.22494-.06134.06145.06145,0,0,1-.0409-.01023.70423.70423,0,0,1,.03067-.0818,1.134,1.134,0,0,0,.05113-.25562,1.06942,1.06942,0,0,0,0-.25562,2.01014,2.01014,0,0,0-.03068-.24539l-.06135-.2454a2.1403,2.1403,0,0,0-.08179-.23517l-.05112-.11248-.05113-.11247-.06135-.10225c-.02045-.04089-.0409-.07157-.06135-.11247a.90053.90053,0,0,0-.06135-.10225c-.02044-.03067-.05112-.07157-.07157-.10225a.78624.78624,0,0,0-.184-.184,2.124,2.124,0,0,0-.42944-.26584,2.75454,2.75454,0,0,0-.46011-.1636,1.935,1.935,0,0,0-.23517-.05112,2.04607,2.04607,0,0,0-.2454-.0409c.15337.05113.29652.11247.4499.17382a3.239,3.239,0,0,1,.41921.21472,2.47084,2.47084,0,0,1,.36809.27608.66739.66739,0,0,1,.13292.16359c.02045.03068.03068.06135.05113.092a.47759.47759,0,0,1,.05112.10225c.03068.07158.06135.13292.092.2045a1.84312,1.84312,0,0,1,.0818.21472,1.76344,1.76344,0,0,1,.07158.21472,1.63552,1.63552,0,0,1,.05112.21472,1.55207,1.55207,0,0,1,.03067.21472,1.50419,1.50419,0,0,1,0,.21472.77828.77828,0,0,1-.03067.21472.38922.38922,0,0,1-.03067.10225,1.66856,1.66856,0,0,1-.19427.28629l.26584-.02044h.092a.28292.28292,0,0,1,.092.01023,1.18826,1.18826,0,0,1,.18405.04089.81535.81535,0,0,1,.1636.0818c.02044.02045.05112.03068.07157.05113l.03067.03068.03067.04089a.56745.56745,0,0,1,.06135.0818l.08181.06133.13292.16359.13292.1636c.04091.05112.092.11247.13293.16359a1.57516,1.57516,0,0,0-.0818-.19427A.97094.97094,0,0,1,12.371,11.85476Z" transform="translate(-0.5 -0.3212)" style="fill:#c6e2ff"/></svg>